# Blender 3.5.1
# www.blender.org
mtllib R2_Celling.mtl
o R2_Celling
v 0.100000 2.700000 -0.300000
v 3.400000 2.700000 -0.300000
v 0.100000 2.700000 -2.650000
v 3.400000 2.700000 -2.650000
v 0.100000 2.750000 -0.300000
v 3.400000 2.750000 -0.300000
v 0.100000 2.750000 -0.200000
v 3.400000 2.750000 -0.200000
v 0.100000 2.700000 -0.200000
v 3.400000 2.700000 -0.200000
v 3.500000 2.700000 -0.300000
v 3.500000 2.700000 -2.650000
v 3.500000 2.700000 -0.200000
v 0.000000 2.700000 -0.300000
v 0.000000 2.700000 -2.650000
v 0.000000 2.700000 -0.200000
v 0.100000 2.700000 -0.000001
v 3.400000 2.700000 -0.000001
v 3.500000 2.700000 -0.000001
v 0.000000 2.700000 -0.000001
v 0.100000 2.800000 -0.000001
v 3.500000 2.800000 -0.000001
v 0.000000 2.800000 -0.000001
v 0.100000 2.700000 -2.750000
v 3.400000 2.700000 -2.750000
v 3.500000 2.700000 -2.750000
v 0.000000 2.700000 -2.750000
v 0.100000 2.800000 -2.750000
v 3.400000 2.800000 -2.750000
v 3.500000 2.800000 -2.750000
v 0.000000 2.800000 -2.750000
v 0.100000 2.800000 -2.650000
v 3.400000 2.800000 -2.650000
v 3.500000 2.800000 -2.650000
v 0.000000 2.800000 -2.650000
v 0.100000 2.800000 -0.300000
v 3.400000 2.800000 -0.300000
v 3.500000 2.800000 -0.300000
v 0.000000 2.800000 -0.300000
v 0.100000 2.800000 -0.200000
v 3.400000 2.800000 -0.200000
v 3.500000 2.800000 -0.200000
v 0.000000 2.800000 -0.200000
v 3.400000 2.800000 -0.000001
vn -0.0000 -1.0000 -0.0000
vn -0.0000 -0.0000 1.0000
vn -0.0000 -0.0000 -1.0000
vn 1.0000 -0.0000 -0.0000
vn -1.0000 -0.0000 -0.0000
vt 0.712121 1.000000
vt 0.884102 0.007813
vt 0.712121 0.000000
vt 0.861088 0.234016
vt 0.000000 1.000000
vt 0.000000 0.000000
vt 0.727273 1.000000
vt 0.880407 0.007813
vt 0.727273 0.000000
vt 0.857394 0.234016
vt 0.757576 1.000000
vt 0.880407 0.015201
vt 0.757576 0.000000
vt 0.857394 0.226627
vt 0.772727 1.000000
vt 0.884102 0.015201
vt 0.772727 0.000000
vt 0.861088 0.226627
vt 0.841769 0.188836
vt 0.841769 0.015201
vt 0.841769 0.196225
vt 0.857394 0.188836
vt 0.857394 0.015201
vt 0.857394 0.196225
vt 0.788352 0.015201
vt 0.788352 0.259029
vt 0.788352 0.266418
vt 0.841769 0.211002
vt 0.788352 0.007813
vt 0.857394 0.211002
vt 0.795741 0.015201
vt 0.788352 0.289431
vt 0.795741 0.266418
vt 0.788352 0.540647
vt 0.834380 0.211002
vt 0.795741 0.007813
vt 0.788352 0.282043
vt 0.864782 0.211002
vt 0.818755 0.015201
vt 0.818755 0.259028
vt 0.818755 0.266417
vt 0.841769 0.007813
vt 0.818755 0.007813
vt 0.857394 0.007813
vt 0.811366 0.015201
vt 0.991542 0.289431
vt 0.811366 0.259028
vt 0.991542 0.533259
vt 0.811366 0.266417
vt 0.991542 0.540647
vt 0.834380 0.007813
vt 0.811366 0.007813
vt 0.991542 0.282043
vt 0.864782 0.007813
vt 0.984153 0.289431
vt 0.984153 0.533259
vt 0.984153 0.540647
vt 0.834380 0.015201
vt 0.984153 0.282043
vt 0.864782 0.015201
vt 0.810518 0.289431
vt 0.810518 0.533259
vt 0.810518 0.540647
vt 0.834380 0.188836
vt 0.810518 0.282043
vt 0.864782 0.188836
vt 0.803130 0.289431
vt 0.803130 0.533259
vt 0.803130 0.540647
vt 0.834380 0.196225
vt 0.803130 0.282043
vt 0.864782 0.196225
vt 0.795741 0.259029
vt 0.788352 0.533259
s 0
usemtl R2_Celling
f 1/1/1 3/5/1 4/6/1 2/3/1
f 2/3/2 6/9/2 5/7/2 1/1/2
f 6/9/1 8/13/1 7/11/1 5/7/1
f 8/13/3 10/17/3 9/15/3 7/11/3
f 1/2/4 5/8/4 7/12/4 9/16/4
f 6/10/5 2/4/5 10/18/5 8/14/5
f 17/25/3 20/29/3 23/36/3 21/31/3
f 19/27/3 18/26/3 44/73/3 22/33/3
f 18/26/3 17/25/3 21/31/3 44/73/3
f 27/43/2 24/39/2 28/45/2 31/52/2
f 25/40/2 26/41/2 30/49/2 29/47/2
f 24/39/2 25/40/2 29/47/2 28/45/2
f 31/53/1 28/46/1 32/55/1 35/59/1
f 29/48/1 30/50/1 34/57/1 33/56/1
f 28/46/1 29/48/1 33/56/1 32/55/1
f 35/59/1 32/55/1 36/61/1 39/65/1
f 33/56/1 34/57/1 38/63/1 37/62/1
f 32/55/1 33/56/1 37/62/1 36/61/1
f 39/65/1 36/61/1 40/67/1 43/71/1
f 37/62/1 38/63/1 42/69/1 41/68/1
f 36/61/1 37/62/1 41/68/1 40/67/1
f 43/71/1 40/67/1 21/32/1 23/37/1
f 41/68/1 42/69/1 22/34/1 44/74/1
f 40/67/1 41/68/1 44/74/1 21/32/1
f 19/28/5 22/35/5 42/70/5 13/21/5
f 13/21/5 42/70/5 38/64/5 11/19/5
f 11/19/5 38/64/5 34/58/5 12/20/5
f 12/20/5 34/58/5 30/51/5 26/42/5
f 16/24/4 43/72/4 23/38/4 20/30/4
f 14/22/4 39/66/4 43/72/4 16/24/4
f 15/23/4 35/60/4 39/66/4 14/22/4
f 27/44/4 31/54/4 35/60/4 15/23/4
