# Blender 3.5.1
# www.blender.org
mtllib UI_button2.mtl
o UI_button2
v -0.038123 0.010105 -0.005161
v -0.047492 0.000736 -0.005161
v -0.038582 0.007210 -0.005161
v -0.039912 0.004598 -0.005161
v -0.041985 0.002525 -0.005161
v -0.044597 0.001195 -0.005161
v -0.047492 0.332885 -0.005161
v -0.038123 0.323516 -0.005161
v -0.044597 0.332427 -0.005161
v -0.041985 0.331096 -0.005161
v -0.039912 0.329023 -0.005161
v -0.038582 0.326412 -0.005161
v -0.240518 0.000736 -0.005160
v -0.249887 0.010105 -0.005160
v -0.243413 0.001195 -0.005160
v -0.246025 0.002525 -0.005160
v -0.248098 0.004598 -0.005160
v -0.249428 0.007210 -0.005160
v -0.249887 0.323516 -0.005160
v -0.240518 0.332885 -0.005160
v -0.249428 0.326412 -0.005160
v -0.248098 0.329023 -0.005160
v -0.246025 0.331096 -0.005160
v -0.243413 0.332427 -0.005160
v -0.047528 0.000736 -0.002833
v -0.038123 0.010141 -0.002833
v -0.044622 0.001196 -0.002833
v -0.042000 0.002532 -0.002833
v -0.039919 0.004613 -0.002833
v -0.038583 0.007235 -0.002833
v -0.050749 0.003272 -0.001485
v -0.040659 0.013362 -0.001485
v -0.047631 0.003766 -0.001485
v -0.044818 0.005199 -0.001485
v -0.042586 0.007431 -0.001485
v -0.041153 0.010244 -0.001485
v -0.049546 0.002249 -0.001686
v -0.039636 0.012159 -0.001686
v -0.046484 0.002734 -0.001686
v -0.043721 0.004142 -0.001686
v -0.041529 0.006334 -0.001686
v -0.040121 0.009097 -0.001686
v -0.048518 0.001437 -0.002000
v -0.038824 0.011130 -0.002000
v -0.045522 0.001911 -0.002000
v -0.042820 0.003288 -0.002000
v -0.040675 0.005433 -0.002000
v -0.039299 0.008135 -0.002000
v -0.047816 0.000916 -0.002395
v -0.038303 0.010429 -0.002395
v -0.044876 0.001381 -0.002395
v -0.042224 0.002733 -0.002395
v -0.040120 0.004837 -0.002395
v -0.038768 0.007489 -0.002395
v -0.038123 0.323480 -0.002833
v -0.047528 0.332885 -0.002833
v -0.038583 0.326387 -0.002833
v -0.039919 0.329008 -0.002833
v -0.042000 0.331089 -0.002833
v -0.044622 0.332425 -0.002833
v -0.040659 0.320259 -0.001485
v -0.050749 0.330349 -0.001485
v -0.041153 0.323377 -0.001485
v -0.042586 0.326190 -0.001485
v -0.044818 0.328422 -0.001485
v -0.047631 0.329855 -0.001485
v -0.039636 0.321462 -0.001686
v -0.049546 0.331372 -0.001686
v -0.040121 0.324525 -0.001686
v -0.041529 0.327287 -0.001686
v -0.043721 0.329480 -0.001686
v -0.046484 0.330887 -0.001686
v -0.038824 0.322491 -0.002000
v -0.048518 0.332184 -0.002000
v -0.039299 0.325486 -0.002000
v -0.040675 0.328188 -0.002000
v -0.042820 0.330333 -0.002000
v -0.045522 0.331710 -0.002000
v -0.038303 0.323192 -0.002395
v -0.047816 0.332705 -0.002395
v -0.038768 0.326132 -0.002395
v -0.040120 0.328784 -0.002395
v -0.042224 0.330889 -0.002395
v -0.044876 0.332240 -0.002395
v -0.249887 0.010141 -0.002833
v -0.240482 0.000736 -0.002833
v -0.249427 0.007235 -0.002833
v -0.248091 0.004613 -0.002833
v -0.246010 0.002532 -0.002833
v -0.243388 0.001196 -0.002833
v -0.237261 0.003272 -0.001485
v -0.247351 0.013362 -0.001485
v -0.240379 0.003766 -0.001485
v -0.243192 0.005199 -0.001485
v -0.245424 0.007431 -0.001485
v -0.246857 0.010244 -0.001485
v -0.238464 0.002249 -0.001686
v -0.248374 0.012159 -0.001686
v -0.241526 0.002734 -0.001686
v -0.244289 0.004142 -0.001686
v -0.246481 0.006334 -0.001686
v -0.247889 0.009097 -0.001686
v -0.239493 0.001437 -0.002000
v -0.249186 0.011130 -0.002000
v -0.242488 0.001911 -0.002000
v -0.245190 0.003288 -0.002000
v -0.247335 0.005433 -0.002000
v -0.248711 0.008135 -0.002000
v -0.240194 0.000916 -0.002395
v -0.249707 0.010429 -0.002395
v -0.243134 0.001381 -0.002395
v -0.245786 0.002733 -0.002395
v -0.247890 0.004837 -0.002395
v -0.249242 0.007489 -0.002395
v -0.240482 0.332885 -0.002833
v -0.249887 0.323480 -0.002833
v -0.243388 0.332425 -0.002833
v -0.246010 0.331089 -0.002833
v -0.248091 0.329008 -0.002833
v -0.249427 0.326387 -0.002833
v -0.249707 0.323192 -0.002395
v -0.240194 0.332705 -0.002395
v -0.249242 0.326132 -0.002395
v -0.247890 0.328784 -0.002395
v -0.245786 0.330889 -0.002395
v -0.243134 0.332240 -0.002395
v -0.249186 0.322491 -0.002000
v -0.239493 0.332184 -0.002000
v -0.248711 0.325486 -0.002000
v -0.247335 0.328188 -0.002000
v -0.245190 0.330333 -0.002000
v -0.242488 0.331710 -0.002000
v -0.248374 0.321462 -0.001686
v -0.238464 0.331372 -0.001686
v -0.247889 0.324525 -0.001686
v -0.246481 0.327287 -0.001686
v -0.244289 0.329480 -0.001686
v -0.241526 0.330887 -0.001686
v -0.247351 0.320259 -0.001485
v -0.237261 0.330349 -0.001485
v -0.246857 0.323377 -0.001485
v -0.245424 0.326190 -0.001485
v -0.243192 0.328422 -0.001485
v -0.240379 0.329855 -0.001485
vn -0.0876 -0.9719 0.2185
vn 0.0876 -0.9719 0.2185
vn 0.0475 -0.9129 0.4055
vn -0.0475 -0.9129 0.4055
vn -0.9719 -0.0876 0.2185
vn -0.9719 0.0876 0.2185
vn -0.9969 0.0792 0.0012
vn -0.9969 -0.0792 0.0012
vn -0.0792 -0.9969 0.0012
vn 0.0792 -0.9969 0.0012
vn -0.0000 -0.0000 -1.0000
vn -0.0160 -0.2639 0.9644
vn 0.0160 -0.2639 0.9644
vn 0.0036 -0.0977 0.9952
vn -0.0036 -0.0977 0.9952
vn -0.0298 -0.4628 0.8860
vn 0.0298 -0.4628 0.8860
vn -0.0629 -0.5479 0.8342
vn 0.0629 -0.5479 0.8342
vn -0.0876 0.9719 0.2185
vn 0.0876 0.9719 0.2185
vn 0.0792 0.9969 0.0012
vn -0.0792 0.9969 0.0012
vn 0.0977 0.0036 0.9952
vn 0.0977 -0.0036 0.9952
vn 0.2639 -0.0160 0.9644
vn 0.2639 0.0160 0.9644
vn -0.0036 0.0977 0.9952
vn -0.0214 0.0825 0.9964
vn -0.0420 0.0604 0.9973
vn -0.0604 0.0420 0.9973
vn -0.0825 0.0214 0.9964
vn -0.0977 0.0036 0.9952
vn -0.0977 -0.0036 0.9952
vn -0.0825 -0.0214 0.9964
vn -0.0604 -0.0420 0.9973
vn -0.0420 -0.0604 0.9973
vn -0.0214 -0.0825 0.9964
vn 0.0214 -0.0825 0.9964
vn 0.0420 -0.0604 0.9973
vn 0.0604 -0.0420 0.9973
vn 0.0825 -0.0214 0.9964
vn 0.0825 0.0214 0.9964
vn 0.0604 0.0420 0.9973
vn 0.0420 0.0604 0.9973
vn 0.0214 0.0825 0.9964
vn 0.0036 0.0977 0.9952
vn 0.9129 0.0475 0.4055
vn 0.9129 -0.0475 0.4055
vn 0.9719 -0.0876 0.2185
vn 0.9719 0.0876 0.2185
vn 0.4628 0.0298 0.8860
vn 0.4628 -0.0298 0.8860
vn 0.5479 -0.0629 0.8342
vn 0.5479 0.0629 0.8342
vn 0.0160 0.2639 0.9644
vn -0.0160 0.2639 0.9644
vn 0.0629 0.5479 0.8342
vn -0.0629 0.5479 0.8342
vn -0.0298 0.4628 0.8860
vn 0.0298 0.4628 0.8860
vn -0.2639 0.0160 0.9644
vn -0.2639 -0.0160 0.9644
vn -0.5479 0.0629 0.8342
vn -0.5479 -0.0629 0.8342
vn -0.4628 -0.0298 0.8860
vn -0.4628 0.0298 0.8860
vn -0.9129 -0.0475 0.4055
vn -0.9129 0.0475 0.4055
vn -0.0475 0.9129 0.4055
vn 0.0475 0.9129 0.4055
vn 0.0630 0.2159 0.9744
vn 0.1145 0.1608 0.9803
vn 0.1608 0.1145 0.9803
vn 0.2159 0.0630 0.9744
vn 0.0630 -0.2159 0.9744
vn 0.1145 -0.1608 0.9803
vn 0.1608 -0.1145 0.9803
vn 0.2159 -0.0630 0.9744
vn 0.1144 0.3850 0.9158
vn 0.2076 0.2910 0.9339
vn 0.2910 0.2076 0.9339
vn 0.3850 0.1144 0.9158
vn 0.1144 -0.3850 0.9158
vn 0.2076 -0.2910 0.9339
vn 0.2910 -0.2076 0.9339
vn 0.3850 -0.1144 0.9158
vn 0.1686 0.4489 0.8775
vn 0.3935 0.5463 0.7395
vn 0.5463 0.3935 0.7395
vn 0.4489 0.1686 0.8775
vn 0.1686 -0.4489 0.8775
vn 0.3935 -0.5463 0.7395
vn 0.5463 -0.3935 0.7395
vn 0.4489 -0.1686 0.8775
vn 0.2378 0.8377 0.4917
vn 0.3112 0.9140 0.2604
vn 0.4952 0.6659 0.5579
vn 0.6659 0.4952 0.5579
vn 0.8377 0.2378 0.4917
vn 0.9140 0.3112 0.2604
vn 0.3112 -0.9140 0.2604
vn 0.2378 -0.8377 0.4917
vn 0.4952 -0.6659 0.5579
vn 0.6659 -0.4952 0.5579
vn 0.9140 -0.3112 0.2604
vn 0.8377 -0.2378 0.4917
vn -0.9140 -0.3112 0.2604
vn -0.8377 -0.2378 0.4917
vn -0.6659 -0.4952 0.5579
vn -0.5463 -0.3935 0.7395
vn -0.4952 -0.6659 0.5579
vn -0.3935 -0.5463 0.7395
vn -0.3112 -0.9140 0.2604
vn -0.2378 -0.8377 0.4917
vn -0.4489 -0.1686 0.8775
vn -0.3850 -0.1144 0.9158
vn -0.2910 -0.2076 0.9339
vn -0.2076 -0.2910 0.9339
vn -0.1686 -0.4489 0.8775
vn -0.1144 -0.3850 0.9158
vn -0.2159 -0.0630 0.9744
vn -0.1608 -0.1145 0.9803
vn -0.1145 -0.1608 0.9803
vn -0.0630 -0.2159 0.9744
vn -0.8377 0.2378 0.4917
vn -0.9140 0.3113 0.2604
vn -0.5463 0.3935 0.7395
vn -0.6659 0.4952 0.5579
vn -0.3935 0.5463 0.7395
vn -0.4952 0.6660 0.5579
vn -0.2378 0.8377 0.4917
vn -0.3112 0.9140 0.2604
vn -0.3850 0.1144 0.9158
vn -0.4489 0.1686 0.8775
vn -0.2910 0.2076 0.9339
vn -0.2076 0.2910 0.9339
vn -0.1144 0.3850 0.9158
vn -0.1686 0.4489 0.8775
vn -0.2159 0.0630 0.9744
vn -0.1608 0.1145 0.9803
vn -0.1145 0.1608 0.9803
vn -0.0630 0.2159 0.9744
vn 0.9969 -0.0792 0.0012
vn 0.9507 -0.3100 0.0040
vn 0.8092 -0.5875 0.0061
vn 0.8088 -0.5880 0.0061
vn 0.5875 -0.8092 0.0061
vn 0.5880 -0.8088 0.0061
vn 0.3100 -0.9507 0.0040
vn -0.9507 -0.3100 0.0040
vn -0.8088 -0.5881 0.0061
vn -0.8092 -0.5875 0.0061
vn -0.5881 -0.8088 0.0061
vn -0.5875 -0.8092 0.0061
vn -0.3100 -0.9507 0.0040
vn 0.3100 0.9507 0.0040
vn 0.5875 0.8092 0.0061
vn 0.5880 0.8088 0.0061
vn 0.8092 0.5875 0.0061
vn 0.8088 0.5880 0.0061
vn 0.9507 0.3100 0.0040
vn 0.9969 0.0792 0.0012
vn -0.9507 0.3100 0.0040
vn -0.8092 0.5875 0.0061
vn -0.8088 0.5881 0.0061
vn -0.5875 0.8092 0.0061
vn -0.5880 0.8088 0.0061
vn -0.3100 0.9507 0.0040
vt 0.095901 0.877778
vt 0.814617 0.033571
vt 0.098525 0.880402
vt 0.793142 0.011723
vt 0.096712 0.877906
vt 0.811891 0.027919
vt 0.097443 0.878279
vt 0.808242 0.022845
vt 0.098024 0.878859
vt 0.803973 0.018258
vt 0.098397 0.879591
vt 0.798841 0.014505
vt 0.005490 0.880402
vt 0.792866 0.557977
vt 0.008114 0.877778
vt 0.814617 0.536503
vt 0.005618 0.879591
vt 0.798467 0.555273
vt 0.005991 0.878859
vt 0.803512 0.551636
vt 0.006572 0.878279
vt 0.808084 0.547365
vt 0.007303 0.877906
vt 0.811829 0.542225
vt 0.098525 0.934468
vt 0.486328 0.012463
vt 0.095901 0.937093
vt 0.464800 0.034229
vt 0.098397 0.935279
vt 0.480652 0.015210
vt 0.098024 0.936011
vt 0.475523 0.018926
vt 0.097443 0.936592
vt 0.471236 0.023488
vt 0.096712 0.936964
vt 0.467554 0.028561
vt 0.008114 0.937093
vt 0.465762 0.536695
vt 0.005490 0.934469
vt 0.487194 0.558453
vt 0.007303 0.936964
vt 0.468491 0.542330
vt 0.006572 0.936592
vt 0.472139 0.547386
vt 0.005991 0.936011
vt 0.476400 0.551953
vt 0.005618 0.935279
vt 0.481516 0.555686
vt 0.788408 0.022273
vt 0.804121 0.038157
vt 0.793048 0.023988
vt 0.796887 0.026455
vt 0.800032 0.029619
vt 0.802442 0.033498
vt 0.782863 0.029236
vt 0.797035 0.043735
vt 0.787365 0.029983
vt 0.791287 0.032031
vt 0.794345 0.035152
vt 0.796346 0.039143
vt 0.784650 0.027541
vt 0.798775 0.041921
vt 0.789098 0.028394
vt 0.792907 0.030491
vt 0.795919 0.033550
vt 0.797971 0.037413
vt 0.786288 0.025834
vt 0.800513 0.040273
vt 0.790685 0.026910
vt 0.794398 0.029062
vt 0.797376 0.032066
vt 0.799483 0.035833
vt 0.787587 0.024096
vt 0.802277 0.038974
vt 0.792011 0.025489
vt 0.795714 0.027751
vt 0.798721 0.030765
vt 0.800927 0.034517
vt 0.803998 0.531789
vt 0.788276 0.547616
vt 0.802292 0.536461
vt 0.799851 0.540313
vt 0.796733 0.543491
vt 0.792883 0.545923
vt 0.796901 0.526201
vt 0.782741 0.540696
vt 0.796205 0.530793
vt 0.794197 0.534782
vt 0.791140 0.537903
vt 0.787228 0.539947
vt 0.798639 0.528015
vt 0.784528 0.542381
vt 0.797828 0.532526
vt 0.795769 0.536386
vt 0.792758 0.539438
vt 0.788957 0.541529
vt 0.800380 0.529666
vt 0.786164 0.544077
vt 0.799338 0.534111
vt 0.797221 0.537864
vt 0.794253 0.540866
vt 0.790539 0.543007
vt 0.802145 0.530967
vt 0.787457 0.545803
vt 0.800779 0.535432
vt 0.798552 0.539171
vt 0.795559 0.542188
vt 0.791857 0.544426
vt 0.475348 0.038841
vt 0.491033 0.022930
vt 0.477020 0.034171
vt 0.479433 0.030275
vt 0.482590 0.027123
vt 0.486409 0.024661
vt 0.496611 0.029873
vt 0.482446 0.044401
vt 0.492105 0.030636
vt 0.488182 0.032698
vt 0.485117 0.035820
vt 0.483131 0.039808
vt 0.494813 0.028183
vt 0.480705 0.042592
vt 0.490365 0.029052
vt 0.486557 0.031159
vt 0.483544 0.034220
vt 0.481502 0.038084
vt 0.493166 0.026483
vt 0.478964 0.040948
vt 0.488773 0.027573
vt 0.485055 0.029732
vt 0.482089 0.032745
vt 0.479986 0.036506
vt 0.491862 0.024751
vt 0.477199 0.039654
vt 0.487445 0.026156
vt 0.483742 0.028411
vt 0.480754 0.031441
vt 0.478539 0.035191
vt 0.491906 0.547943
vt 0.476232 0.532106
vt 0.487284 0.546234
vt 0.483458 0.543779
vt 0.480321 0.540623
vt 0.477912 0.536754
vt 0.478072 0.531288
vt 0.492725 0.546127
vt 0.479424 0.535735
vt 0.481630 0.539479
vt 0.484627 0.542488
vt 0.488316 0.544738
vt 0.479831 0.529989
vt 0.494020 0.544395
vt 0.480863 0.534421
vt 0.482968 0.538173
vt 0.485931 0.541175
vt 0.489638 0.543321
vt 0.481567 0.528340
vt 0.495654 0.542695
vt 0.482372 0.532842
vt 0.484419 0.536696
vt 0.487421 0.539748
vt 0.491221 0.541843
vt 0.483303 0.526525
vt 0.497439 0.541004
vt 0.483993 0.531114
vt 0.485992 0.535099
vt 0.489041 0.538217
vt 0.492948 0.540261
s 1
usemtl UV
f 86/110/1 25/49/2 49/73/3 109/133/4
f 85/109/5 116/140/6 19/38/7 14/28/8
f 25/49/2 86/110/1 13/26/9 2/4/10
f 13/25/11 15/29/11 16/31/11 17/33/11 18/35/11 14/27/11 19/37/11 21/41/11 22/43/11 23/45/11 24/47/11 20/39/11 7/13/11 9/17/11 10/19/11 11/21/11 12/23/11 8/15/11 1/1/11 3/5/11 4/7/11 5/9/11 6/11/11 2/3/11
f 97/121/12 37/61/13 31/55/14 91/115/15
f 103/127/16 43/67/17 37/61/13 97/121/12
f 109/133/18 49/73/19 43/67/17 103/127/16
f 115/139/20 56/80/21 7/14/22 20/40/23
f 61/85/24 32/56/25 38/62/26 67/91/27
f 140/164/28 144/168/29 143/167/30 142/166/31 141/165/32 139/163/33 92/116/34 96/120/35 95/119/36 94/118/37 93/117/38 91/115/15 31/55/14 33/57/39 34/58/40 35/59/41 36/60/42 32/56/25 61/85/24 63/87/43 64/88/44 65/89/45 66/90/46 62/86/47
f 79/103/48 50/74/49 26/50/50 55/79/51
f 73/97/52 44/68/53 50/74/54 79/103/55
f 68/92/56 134/158/57 140/164/28 62/86/47
f 80/104/58 122/146/59 128/152/60 74/98/61
f 74/98/61 128/152/60 134/158/57 68/92/56
f 133/157/62 98/122/63 92/116/34 139/163/33
f 121/145/64 110/134/65 104/128/66 127/151/67
f 127/151/67 104/128/66 98/122/63 133/157/62
f 116/140/6 85/109/5 110/134/68 121/145/69
f 56/80/21 115/139/20 122/146/70 80/104/71
f 68/92/56 62/86/47 66/90/46 72/96/72
f 72/96/72 66/90/46 65/89/45 71/95/73
f 71/95/73 65/89/45 64/88/44 70/94/74
f 70/94/74 64/88/44 63/87/43 69/93/75
f 69/93/75 63/87/43 61/85/24 67/91/27
f 31/55/14 37/61/13 39/63/76 33/57/39
f 33/57/39 39/63/76 40/64/77 34/58/40
f 34/58/40 40/64/77 41/65/78 35/59/41
f 35/59/41 41/65/78 42/66/79 36/60/42
f 36/60/42 42/66/79 38/62/26 32/56/25
f 74/98/61 68/92/56 72/96/72 78/102/80
f 78/102/80 72/96/72 71/95/73 77/101/81
f 77/101/81 71/95/73 70/94/74 76/100/82
f 76/100/82 70/94/74 69/93/75 75/99/83
f 75/99/83 69/93/75 67/91/27 73/97/52
f 37/61/13 43/67/17 45/69/84 39/63/76
f 39/63/76 45/69/84 46/70/85 40/64/77
f 40/64/77 46/70/85 47/71/86 41/65/78
f 41/65/78 47/71/86 48/72/87 42/66/79
f 42/66/79 48/72/87 44/68/53 38/62/26
f 80/104/58 74/98/61 78/102/80 84/108/88
f 84/108/88 78/102/80 77/101/81 83/107/89
f 83/107/89 77/101/81 76/100/82 82/106/90
f 82/106/90 76/100/82 75/99/83 81/105/91
f 81/105/91 75/99/83 73/97/52 79/103/55
f 43/67/17 49/73/19 51/75/92 45/69/84
f 45/69/84 51/75/92 52/76/93 46/70/85
f 46/70/85 52/76/93 53/77/94 47/71/86
f 47/71/86 53/77/94 54/78/95 48/72/87
f 48/72/87 54/78/95 50/74/54 44/68/53
f 56/80/21 80/104/71 84/108/96 60/84/97
f 60/84/97 84/108/96 83/107/89 59/83/98
f 59/83/98 83/107/89 82/106/90 58/82/99
f 58/82/99 82/106/90 81/105/100 57/81/101
f 57/81/101 81/105/100 79/103/48 55/79/51
f 49/73/3 25/49/2 27/51/102 51/75/103
f 51/75/103 27/51/102 28/52/104 52/76/93
f 52/76/93 28/52/104 29/53/105 53/77/94
f 53/77/94 29/53/105 30/54/106 54/78/107
f 54/78/107 30/54/106 26/50/50 50/74/49
f 110/134/68 85/109/5 87/111/108 114/138/109
f 114/138/109 87/111/108 88/112/110 113/137/111
f 113/137/111 88/112/110 89/113/112 112/136/113
f 112/136/113 89/113/112 90/114/114 111/135/115
f 111/135/115 90/114/114 86/110/1 109/133/4
f 104/128/66 110/134/65 114/138/116 108/132/117
f 108/132/117 114/138/116 113/137/111 107/131/118
f 107/131/118 113/137/111 112/136/113 106/130/119
f 106/130/119 112/136/113 111/135/120 105/129/121
f 105/129/121 111/135/120 109/133/18 103/127/16
f 98/122/63 104/128/66 108/132/117 102/126/122
f 102/126/122 108/132/117 107/131/118 101/125/123
f 101/125/123 107/131/118 106/130/119 100/124/124
f 100/124/124 106/130/119 105/129/121 99/123/125
f 99/123/125 105/129/121 103/127/16 97/121/12
f 92/116/34 98/122/63 102/126/122 96/120/35
f 96/120/35 102/126/122 101/125/123 95/119/36
f 95/119/36 101/125/123 100/124/124 94/118/37
f 94/118/37 100/124/124 99/123/125 93/117/38
f 93/117/38 99/123/125 97/121/12 91/115/15
f 116/140/6 121/145/69 123/147/126 120/144/127
f 120/144/127 123/147/126 124/148/128 119/143/129
f 119/143/129 124/148/128 125/149/130 118/142/131
f 118/142/131 125/149/130 126/150/132 117/141/133
f 117/141/133 126/150/132 122/146/70 115/139/20
f 121/145/64 127/151/67 129/153/134 123/147/135
f 123/147/135 129/153/134 130/154/136 124/148/128
f 124/148/128 130/154/136 131/155/137 125/149/130
f 125/149/130 131/155/137 132/156/138 126/150/139
f 126/150/139 132/156/138 128/152/60 122/146/59
f 127/151/67 133/157/62 135/159/140 129/153/134
f 129/153/134 135/159/140 136/160/141 130/154/136
f 130/154/136 136/160/141 137/161/142 131/155/137
f 131/155/137 137/161/142 138/162/143 132/156/138
f 132/156/138 138/162/143 134/158/57 128/152/60
f 133/157/62 139/163/33 141/165/32 135/159/140
f 135/159/140 141/165/32 142/166/31 136/160/141
f 136/160/141 142/166/31 143/167/30 137/161/142
f 137/161/142 143/167/30 144/168/29 138/162/143
f 138/162/143 144/168/29 140/164/28 134/158/57
f 1/2/144 26/50/50 30/54/106 3/6/145
f 3/6/145 30/54/106 29/53/146 4/8/147
f 4/8/147 29/53/146 28/52/148 5/10/149
f 5/10/149 28/52/148 27/51/102 6/12/150
f 6/12/150 27/51/102 25/49/2 2/4/10
f 85/109/5 14/28/8 18/36/151 87/111/108
f 87/111/108 18/36/151 17/34/152 88/112/153
f 88/112/153 17/34/152 16/32/154 89/113/155
f 89/113/155 16/32/154 15/30/156 90/114/114
f 90/114/114 15/30/156 13/26/9 86/110/1
f 7/14/22 56/80/21 60/84/97 9/18/157
f 9/18/157 60/84/97 59/83/158 10/20/159
f 10/20/159 59/83/158 58/82/160 11/22/161
f 11/22/161 58/82/160 57/81/101 12/24/162
f 12/24/162 57/81/101 55/79/51 8/16/163
f 19/38/7 116/140/6 120/144/127 21/42/164
f 21/42/164 120/144/127 119/143/165 22/44/166
f 22/44/166 119/143/165 118/142/167 23/46/168
f 23/46/168 118/142/167 117/141/133 24/48/169
f 24/48/169 117/141/133 115/139/20 20/40/23
f 67/91/27 38/62/26 44/68/53 73/97/52
f 1/2/144 8/16/163 55/79/51 26/50/50
