# Blender 3.5.1
# www.blender.org
mtllib UI_button3.mtl
o UI_button3
v 0.351082 0.096513 -0.005161
v 0.341713 0.087145 -0.005161
v 0.350624 0.093618 -0.005161
v 0.349293 0.091007 -0.005161
v 0.347220 0.088934 -0.005161
v 0.344609 0.087603 -0.005161
v 0.341713 0.246477 -0.005161
v 0.351082 0.237108 -0.005161
v 0.344609 0.246018 -0.005161
v 0.347220 0.244687 -0.005161
v 0.349293 0.242615 -0.005161
v 0.350624 0.240003 -0.005161
v 0.041684 0.087145 -0.005160
v 0.032315 0.096513 -0.005160
v 0.038789 0.087603 -0.005160
v 0.036177 0.088934 -0.005160
v 0.034105 0.091007 -0.005160
v 0.032774 0.093618 -0.005160
v 0.032315 0.237108 -0.005160
v 0.041684 0.246477 -0.005160
v 0.032774 0.240003 -0.005160
v 0.034105 0.242615 -0.005160
v 0.036177 0.244687 -0.005160
v 0.038789 0.246018 -0.005160
v 0.341678 0.087145 -0.002833
v 0.351082 0.096549 -0.002833
v 0.344584 0.087605 -0.002833
v 0.347205 0.088941 -0.002833
v 0.349286 0.091021 -0.002833
v 0.350622 0.093643 -0.002833
v 0.338457 0.089681 -0.001485
v 0.348546 0.099770 -0.001485
v 0.341574 0.090175 -0.001485
v 0.344387 0.091608 -0.001485
v 0.346619 0.093840 -0.001485
v 0.348052 0.096653 -0.001485
v 0.339659 0.088658 -0.001686
v 0.349569 0.098568 -0.001686
v 0.342722 0.089143 -0.001686
v 0.345484 0.090550 -0.001686
v 0.347677 0.092743 -0.001686
v 0.349084 0.095505 -0.001686
v 0.340688 0.087846 -0.002000
v 0.350381 0.097539 -0.002000
v 0.343683 0.088320 -0.002000
v 0.346385 0.089697 -0.002000
v 0.348530 0.091841 -0.002000
v 0.349907 0.094544 -0.002000
v 0.341389 0.087324 -0.002395
v 0.350903 0.096837 -0.002395
v 0.344329 0.087790 -0.002395
v 0.346981 0.089141 -0.002395
v 0.349086 0.091246 -0.002395
v 0.350437 0.093898 -0.002395
v 0.351082 0.237072 -0.002833
v 0.341678 0.246477 -0.002833
v 0.350622 0.239978 -0.002833
v 0.349286 0.242600 -0.002833
v 0.347205 0.244680 -0.002833
v 0.344584 0.246016 -0.002833
v 0.348546 0.233851 -0.001485
v 0.338457 0.243940 -0.001485
v 0.348052 0.236969 -0.001485
v 0.346619 0.239781 -0.001485
v 0.344387 0.242013 -0.001485
v 0.341574 0.243447 -0.001485
v 0.349569 0.235054 -0.001686
v 0.339659 0.244964 -0.001686
v 0.349084 0.238116 -0.001686
v 0.347677 0.240878 -0.001686
v 0.345484 0.243071 -0.001686
v 0.342722 0.244479 -0.001686
v 0.350381 0.236082 -0.002000
v 0.340688 0.245776 -0.002000
v 0.349907 0.239078 -0.002000
v 0.348530 0.241780 -0.002000
v 0.346385 0.243924 -0.002000
v 0.343683 0.245301 -0.002000
v 0.350903 0.236784 -0.002395
v 0.341389 0.246297 -0.002395
v 0.350437 0.239724 -0.002395
v 0.349086 0.242375 -0.002395
v 0.346981 0.244480 -0.002395
v 0.344329 0.245831 -0.002395
v 0.032315 0.096549 -0.002833
v 0.041720 0.087145 -0.002833
v 0.032776 0.093643 -0.002833
v 0.034112 0.091021 -0.002833
v 0.036192 0.088941 -0.002833
v 0.038814 0.087605 -0.002833
v 0.044941 0.089681 -0.001485
v 0.034852 0.099770 -0.001485
v 0.041823 0.090175 -0.001485
v 0.039011 0.091608 -0.001485
v 0.036779 0.093840 -0.001485
v 0.035345 0.096653 -0.001485
v 0.043738 0.088658 -0.001686
v 0.033828 0.098568 -0.001686
v 0.040676 0.089143 -0.001686
v 0.037913 0.090550 -0.001686
v 0.035721 0.092743 -0.001686
v 0.034313 0.095505 -0.001686
v 0.042710 0.087846 -0.002000
v 0.033016 0.097539 -0.002000
v 0.039714 0.088320 -0.002000
v 0.037012 0.089697 -0.002000
v 0.034868 0.091841 -0.002000
v 0.033491 0.094544 -0.002000
v 0.042008 0.087324 -0.002395
v 0.032495 0.096837 -0.002395
v 0.039068 0.087790 -0.002395
v 0.036417 0.089141 -0.002395
v 0.034312 0.091246 -0.002395
v 0.032961 0.093898 -0.002395
v 0.041720 0.246477 -0.002833
v 0.032315 0.237072 -0.002833
v 0.038814 0.246016 -0.002833
v 0.036192 0.244680 -0.002833
v 0.034112 0.242600 -0.002833
v 0.032776 0.239978 -0.002833
v 0.032495 0.236784 -0.002395
v 0.042008 0.246297 -0.002395
v 0.032961 0.239724 -0.002395
v 0.034312 0.242375 -0.002395
v 0.036417 0.244480 -0.002395
v 0.039068 0.245831 -0.002395
v 0.033016 0.236082 -0.002000
v 0.042710 0.245776 -0.002000
v 0.033491 0.239078 -0.002000
v 0.034868 0.241780 -0.002000
v 0.037012 0.243924 -0.002000
v 0.039714 0.245301 -0.002000
v 0.033828 0.235054 -0.001686
v 0.043738 0.244964 -0.001686
v 0.034313 0.238116 -0.001686
v 0.035721 0.240878 -0.001686
v 0.037913 0.243071 -0.001686
v 0.040676 0.244479 -0.001686
v 0.034852 0.233851 -0.001485
v 0.044941 0.243940 -0.001485
v 0.035345 0.236969 -0.001485
v 0.036779 0.239781 -0.001485
v 0.039011 0.242013 -0.001485
v 0.041823 0.243447 -0.001485
vn -0.0876 -0.9719 0.2185
vn 0.0876 -0.9719 0.2185
vn 0.0475 -0.9129 0.4055
vn -0.0475 -0.9129 0.4055
vn -0.9719 -0.0876 0.2185
vn -0.9719 0.0876 0.2185
vn -0.9969 0.0792 0.0012
vn -0.9969 -0.0792 0.0012
vn -0.0792 -0.9969 0.0012
vn 0.0792 -0.9969 0.0012
vn -0.0000 -0.0000 -1.0000
vn -0.0160 -0.2639 0.9644
vn 0.0160 -0.2639 0.9644
vn 0.0036 -0.0977 0.9952
vn -0.0036 -0.0977 0.9952
vn -0.0298 -0.4628 0.8860
vn 0.0298 -0.4628 0.8860
vn -0.0629 -0.5479 0.8342
vn 0.0629 -0.5479 0.8342
vn 0.0977 0.0036 0.9952
vn 0.0977 -0.0036 0.9952
vn 0.2639 -0.0160 0.9644
vn 0.2639 0.0160 0.9644
vn 0.9129 0.0475 0.4055
vn 0.9129 -0.0475 0.4055
vn 0.9719 -0.0876 0.2185
vn 0.9719 0.0876 0.2185
vn -0.0036 0.0977 0.9952
vn -0.0214 0.0825 0.9964
vn -0.0420 0.0604 0.9973
vn -0.0604 0.0420 0.9973
vn -0.0825 0.0214 0.9964
vn -0.0977 0.0036 0.9952
vn -0.0977 -0.0036 0.9952
vn -0.0825 -0.0214 0.9964
vn -0.0604 -0.0420 0.9973
vn -0.0420 -0.0604 0.9973
vn -0.0214 -0.0825 0.9964
vn 0.0214 -0.0825 0.9964
vn 0.0420 -0.0604 0.9973
vn 0.0604 -0.0420 0.9973
vn 0.0825 -0.0214 0.9964
vn 0.0825 0.0214 0.9964
vn 0.0604 0.0420 0.9973
vn 0.0420 0.0604 0.9973
vn 0.0214 0.0825 0.9964
vn 0.0036 0.0977 0.9952
vn 0.4628 0.0298 0.8860
vn 0.4628 -0.0298 0.8860
vn 0.5479 -0.0629 0.8342
vn 0.5479 0.0629 0.8342
vn 0.0160 0.2639 0.9644
vn -0.0160 0.2639 0.9644
vn 0.0629 0.5479 0.8342
vn -0.0629 0.5479 0.8342
vn -0.0298 0.4628 0.8860
vn 0.0298 0.4628 0.8860
vn 0.0876 0.9719 0.2185
vn -0.0876 0.9719 0.2185
vn -0.0475 0.9129 0.4055
vn 0.0475 0.9129 0.4055
vn -0.2639 0.0160 0.9644
vn -0.2639 -0.0160 0.9644
vn -0.5479 0.0629 0.8342
vn -0.5479 -0.0629 0.8342
vn -0.4628 -0.0298 0.8860
vn -0.4628 0.0298 0.8860
vn -0.9129 -0.0475 0.4055
vn -0.9129 0.0475 0.4055
vn 0.0792 0.9969 0.0012
vn -0.0792 0.9969 0.0012
vn 0.0630 0.2159 0.9744
vn 0.1145 0.1608 0.9803
vn 0.1608 0.1145 0.9803
vn 0.2159 0.0630 0.9744
vn 0.0630 -0.2159 0.9744
vn 0.1145 -0.1608 0.9803
vn 0.1608 -0.1145 0.9803
vn 0.2159 -0.0630 0.9744
vn 0.1144 0.3850 0.9158
vn 0.2076 0.2910 0.9339
vn 0.2910 0.2076 0.9339
vn 0.3850 0.1144 0.9158
vn 0.1144 -0.3850 0.9158
vn 0.2076 -0.2910 0.9339
vn 0.2910 -0.2076 0.9339
vn 0.3850 -0.1144 0.9158
vn 0.1686 0.4489 0.8775
vn 0.3935 0.5463 0.7395
vn 0.5463 0.3935 0.7395
vn 0.4489 0.1686 0.8775
vn 0.1686 -0.4489 0.8775
vn 0.3935 -0.5463 0.7395
vn 0.5463 -0.3935 0.7395
vn 0.4489 -0.1686 0.8775
vn 0.2378 0.8377 0.4917
vn 0.3113 0.9140 0.2604
vn 0.4952 0.6659 0.5579
vn 0.6659 0.4952 0.5579
vn 0.8377 0.2378 0.4917
vn 0.9140 0.3112 0.2604
vn 0.3113 -0.9140 0.2604
vn 0.2378 -0.8377 0.4917
vn 0.4952 -0.6659 0.5579
vn 0.6659 -0.4952 0.5579
vn 0.9140 -0.3112 0.2604
vn 0.8377 -0.2378 0.4917
vn -0.9140 -0.3112 0.2604
vn -0.8377 -0.2378 0.4917
vn -0.6659 -0.4952 0.5579
vn -0.5463 -0.3935 0.7395
vn -0.4952 -0.6659 0.5579
vn -0.3935 -0.5463 0.7395
vn -0.3112 -0.9140 0.2604
vn -0.2378 -0.8377 0.4917
vn -0.4489 -0.1686 0.8775
vn -0.3850 -0.1144 0.9158
vn -0.2910 -0.2076 0.9339
vn -0.2076 -0.2910 0.9339
vn -0.1686 -0.4489 0.8775
vn -0.1144 -0.3850 0.9158
vn -0.2159 -0.0630 0.9744
vn -0.1608 -0.1145 0.9803
vn -0.1145 -0.1608 0.9803
vn -0.0630 -0.2159 0.9744
vn -0.8377 0.2378 0.4917
vn -0.9140 0.3112 0.2604
vn -0.5463 0.3935 0.7395
vn -0.6659 0.4952 0.5579
vn -0.3935 0.5463 0.7395
vn -0.4952 0.6660 0.5579
vn -0.2378 0.8377 0.4917
vn -0.3112 0.9140 0.2604
vn -0.3850 0.1144 0.9158
vn -0.4489 0.1686 0.8775
vn -0.2910 0.2076 0.9339
vn -0.2076 0.2910 0.9339
vn -0.1144 0.3850 0.9158
vn -0.1686 0.4489 0.8775
vn -0.2159 0.0630 0.9744
vn -0.1608 0.1145 0.9803
vn -0.1145 0.1608 0.9803
vn -0.0630 0.2159 0.9744
vn 0.9969 -0.0792 0.0012
vn 0.9507 -0.3100 0.0040
vn 0.8092 -0.5875 0.0061
vn 0.8088 -0.5880 0.0061
vn 0.5875 -0.8092 0.0061
vn 0.5880 -0.8088 0.0061
vn 0.3100 -0.9507 0.0040
vn -0.9507 -0.3100 0.0040
vn -0.8088 -0.5880 0.0061
vn -0.8092 -0.5875 0.0061
vn -0.5881 -0.8088 0.0061
vn -0.5875 -0.8092 0.0061
vn -0.3100 -0.9507 0.0040
vn 0.3100 0.9507 0.0040
vn 0.5875 0.8092 0.0061
vn 0.5880 0.8088 0.0061
vn 0.8092 0.5875 0.0061
vn 0.8088 0.5880 0.0061
vn 0.9507 0.3100 0.0040
vn 0.9969 0.0792 0.0012
vn -0.9507 0.3100 0.0040
vn -0.8092 0.5875 0.0061
vn -0.8088 0.5880 0.0061
vn -0.5875 0.8092 0.0061
vn -0.5881 0.8088 0.0061
vn -0.3100 0.9507 0.0040
vt 0.096623 0.988185
vt 0.534080 0.607039
vt 0.093998 0.990809
vt 0.512473 0.585565
vt 0.096494 0.988996
vt 0.531356 0.601368
vt 0.096121 0.989727
vt 0.527668 0.596250
vt 0.095541 0.990308
vt 0.523138 0.591974
vt 0.094809 0.990680
vt 0.518101 0.588307
vt 0.093998 0.946180
vt 0.512060 0.851981
vt 0.096623 0.948804
vt 0.533386 0.830469
vt 0.094809 0.946308
vt 0.517735 0.849251
vt 0.095541 0.946681
vt 0.522843 0.845553
vt 0.096121 0.947262
vt 0.527086 0.841026
vt 0.096494 0.947993
vt 0.530699 0.836028
vt 0.009960 0.990809
vt 0.034415 0.584651
vt 0.007336 0.988185
vt 0.012626 0.605964
vt 0.009149 0.990680
vt 0.028784 0.587334
vt 0.008418 0.990308
vt 0.023720 0.590951
vt 0.007837 0.989727
vt 0.019146 0.595192
vt 0.007464 0.988996
vt 0.015404 0.600292
vt 0.007336 0.948804
vt 0.012407 0.830494
vt 0.009960 0.946180
vt 0.033995 0.851981
vt 0.007464 0.947993
vt 0.015110 0.836159
vt 0.007837 0.947262
vt 0.018789 0.841281
vt 0.008418 0.946681
vt 0.023318 0.845562
vt 0.009149 0.946308
vt 0.028359 0.849237
vt 0.507881 0.596021
vt 0.523598 0.611664
vt 0.512513 0.597695
vt 0.516371 0.600103
vt 0.519485 0.603254
vt 0.521914 0.607061
vt 0.502345 0.603051
vt 0.516694 0.617145
vt 0.506900 0.603744
vt 0.510848 0.605729
vt 0.513934 0.608784
vt 0.515959 0.612680
vt 0.504146 0.601330
vt 0.518374 0.615372
vt 0.508616 0.602133
vt 0.512444 0.604174
vt 0.515465 0.607179
vt 0.517536 0.610963
vt 0.505781 0.599608
vt 0.520065 0.613751
vt 0.510186 0.600634
vt 0.513916 0.602733
vt 0.516887 0.605698
vt 0.519010 0.609393
vt 0.507069 0.597861
vt 0.521787 0.612469
vt 0.511495 0.599201
vt 0.515208 0.601409
vt 0.518199 0.604392
vt 0.520424 0.608082
vt 0.523111 0.825929
vt 0.507422 0.841496
vt 0.521430 0.830494
vt 0.519023 0.834294
vt 0.515882 0.837392
vt 0.512054 0.839809
vt 0.516251 0.820455
vt 0.501897 0.834449
vt 0.515515 0.824895
vt 0.513480 0.828767
vt 0.510395 0.831801
vt 0.506448 0.833774
vt 0.517919 0.822223
vt 0.503692 0.836176
vt 0.517079 0.826607
vt 0.515009 0.830374
vt 0.511978 0.833350
vt 0.508159 0.835383
vt 0.519597 0.823840
vt 0.505324 0.837903
vt 0.518543 0.828173
vt 0.516429 0.831852
vt 0.513442 0.834781
vt 0.509727 0.836880
vt 0.521306 0.825119
vt 0.506611 0.839655
vt 0.519949 0.829478
vt 0.517740 0.833151
vt 0.514732 0.836097
vt 0.511034 0.838309
vt 0.023119 0.610670
vt 0.038941 0.595086
vt 0.024835 0.606061
vt 0.027292 0.602262
vt 0.030428 0.599128
vt 0.034302 0.596740
vt 0.044458 0.602143
vt 0.030028 0.616186
vt 0.039894 0.602820
vt 0.035926 0.604794
vt 0.032816 0.607828
vt 0.030775 0.611718
vt 0.042661 0.600413
vt 0.028350 0.614407
vt 0.038182 0.601199
vt 0.034337 0.603226
vt 0.031293 0.606215
vt 0.029203 0.609993
vt 0.041029 0.598682
vt 0.026660 0.612777
vt 0.036615 0.599691
vt 0.032871 0.601775
vt 0.029879 0.604725
vt 0.027733 0.608414
vt 0.039745 0.596927
vt 0.024938 0.611488
vt 0.035313 0.598251
vt 0.031585 0.600441
vt 0.028572 0.603410
vt 0.026323 0.607093
vt 0.038589 0.841514
vt 0.022836 0.825877
vt 0.033951 0.839841
vt 0.030087 0.837431
vt 0.026966 0.834284
vt 0.024534 0.830480
vt 0.024652 0.825066
vt 0.039400 0.839672
vt 0.026023 0.829457
vt 0.028250 0.833144
vt 0.031250 0.836122
vt 0.034970 0.838333
vt 0.026376 0.823778
vt 0.040686 0.837922
vt 0.027438 0.828144
vt 0.029566 0.831844
vt 0.032550 0.834799
vt 0.036279 0.836899
vt 0.028069 0.822153
vt 0.042319 0.836197
vt 0.028913 0.826569
vt 0.030988 0.830359
vt 0.034020 0.833357
vt 0.037849 0.835397
vt 0.029752 0.820376
vt 0.044116 0.834475
vt 0.030492 0.824849
vt 0.032525 0.828752
vt 0.035614 0.831804
vt 0.039564 0.833785
s 1
usemtl UV
f 86/110/1 25/49/2 49/73/3 109/133/4
f 85/109/5 116/140/6 19/38/7 14/28/8
f 25/49/2 86/110/1 13/26/9 2/4/10
f 13/25/11 15/29/11 16/31/11 17/33/11 18/35/11 14/27/11 19/37/11 21/41/11 22/43/11 23/45/11 24/47/11 20/39/11 7/13/11 9/17/11 10/19/11 11/21/11 12/23/11 8/15/11 1/1/11 3/5/11 4/7/11 5/9/11 6/11/11 2/3/11
f 97/121/12 37/61/13 31/55/14 91/115/15
f 103/127/16 43/67/17 37/61/13 97/121/12
f 109/133/18 49/73/19 43/67/17 103/127/16
f 61/85/20 32/56/21 38/62/22 67/91/23
f 79/103/24 50/74/25 26/50/26 55/79/27
f 140/164/28 144/168/29 143/167/30 142/166/31 141/165/32 139/163/33 92/116/34 96/120/35 95/119/36 94/118/37 93/117/38 91/115/15 31/55/14 33/57/39 34/58/40 35/59/41 36/60/42 32/56/21 61/85/20 63/87/43 64/88/44 65/89/45 66/90/46 62/86/47
f 73/97/48 44/68/49 50/74/50 79/103/51
f 67/91/23 38/62/22 44/68/49 73/97/48
f 68/92/52 134/158/53 140/164/28 62/86/47
f 80/104/54 122/146/55 128/152/56 74/98/57
f 74/98/57 128/152/56 134/158/53 68/92/52
f 56/80/58 115/139/59 122/146/60 80/104/61
f 133/157/62 98/122/63 92/116/34 139/163/33
f 121/145/64 110/134/65 104/128/66 127/151/67
f 127/151/67 104/128/66 98/122/63 133/157/62
f 116/140/6 85/109/5 110/134/68 121/145/69
f 115/139/59 56/80/58 7/14/70 20/40/71
f 68/92/52 62/86/47 66/90/46 72/96/72
f 72/96/72 66/90/46 65/89/45 71/95/73
f 71/95/73 65/89/45 64/88/44 70/94/74
f 70/94/74 64/88/44 63/87/43 69/93/75
f 69/93/75 63/87/43 61/85/20 67/91/23
f 31/55/14 37/61/13 39/63/76 33/57/39
f 33/57/39 39/63/76 40/64/77 34/58/40
f 34/58/40 40/64/77 41/65/78 35/59/41
f 35/59/41 41/65/78 42/66/79 36/60/42
f 36/60/42 42/66/79 38/62/22 32/56/21
f 74/98/57 68/92/52 72/96/72 78/102/80
f 78/102/80 72/96/72 71/95/73 77/101/81
f 77/101/81 71/95/73 70/94/74 76/100/82
f 76/100/82 70/94/74 69/93/75 75/99/83
f 75/99/83 69/93/75 67/91/23 73/97/48
f 37/61/13 43/67/17 45/69/84 39/63/76
f 39/63/76 45/69/84 46/70/85 40/64/77
f 40/64/77 46/70/85 47/71/86 41/65/78
f 41/65/78 47/71/86 48/72/87 42/66/79
f 42/66/79 48/72/87 44/68/49 38/62/22
f 80/104/54 74/98/57 78/102/80 84/108/88
f 84/108/88 78/102/80 77/101/81 83/107/89
f 83/107/89 77/101/81 76/100/82 82/106/90
f 82/106/90 76/100/82 75/99/83 81/105/91
f 81/105/91 75/99/83 73/97/48 79/103/51
f 43/67/17 49/73/19 51/75/92 45/69/84
f 45/69/84 51/75/92 52/76/93 46/70/85
f 46/70/85 52/76/93 53/77/94 47/71/86
f 47/71/86 53/77/94 54/78/95 48/72/87
f 48/72/87 54/78/95 50/74/50 44/68/49
f 56/80/58 80/104/61 84/108/96 60/84/97
f 60/84/97 84/108/96 83/107/89 59/83/98
f 59/83/98 83/107/89 82/106/90 58/82/99
f 58/82/99 82/106/90 81/105/100 57/81/101
f 57/81/101 81/105/100 79/103/24 55/79/27
f 49/73/3 25/49/2 27/51/102 51/75/103
f 51/75/103 27/51/102 28/52/104 52/76/93
f 52/76/93 28/52/104 29/53/105 53/77/94
f 53/77/94 29/53/105 30/54/106 54/78/107
f 54/78/107 30/54/106 26/50/26 50/74/25
f 110/134/68 85/109/5 87/111/108 114/138/109
f 114/138/109 87/111/108 88/112/110 113/137/111
f 113/137/111 88/112/110 89/113/112 112/136/113
f 112/136/113 89/113/112 90/114/114 111/135/115
f 111/135/115 90/114/114 86/110/1 109/133/4
f 104/128/66 110/134/65 114/138/116 108/132/117
f 108/132/117 114/138/116 113/137/111 107/131/118
f 107/131/118 113/137/111 112/136/113 106/130/119
f 106/130/119 112/136/113 111/135/120 105/129/121
f 105/129/121 111/135/120 109/133/18 103/127/16
f 98/122/63 104/128/66 108/132/117 102/126/122
f 102/126/122 108/132/117 107/131/118 101/125/123
f 101/125/123 107/131/118 106/130/119 100/124/124
f 100/124/124 106/130/119 105/129/121 99/123/125
f 99/123/125 105/129/121 103/127/16 97/121/12
f 92/116/34 98/122/63 102/126/122 96/120/35
f 96/120/35 102/126/122 101/125/123 95/119/36
f 95/119/36 101/125/123 100/124/124 94/118/37
f 94/118/37 100/124/124 99/123/125 93/117/38
f 93/117/38 99/123/125 97/121/12 91/115/15
f 116/140/6 121/145/69 123/147/126 120/144/127
f 120/144/127 123/147/126 124/148/128 119/143/129
f 119/143/129 124/148/128 125/149/130 118/142/131
f 118/142/131 125/149/130 126/150/132 117/141/133
f 117/141/133 126/150/132 122/146/60 115/139/59
f 121/145/64 127/151/67 129/153/134 123/147/135
f 123/147/135 129/153/134 130/154/136 124/148/128
f 124/148/128 130/154/136 131/155/137 125/149/130
f 125/149/130 131/155/137 132/156/138 126/150/139
f 126/150/139 132/156/138 128/152/56 122/146/55
f 127/151/67 133/157/62 135/159/140 129/153/134
f 129/153/134 135/159/140 136/160/141 130/154/136
f 130/154/136 136/160/141 137/161/142 131/155/137
f 131/155/137 137/161/142 138/162/143 132/156/138
f 132/156/138 138/162/143 134/158/53 128/152/56
f 133/157/62 139/163/33 141/165/32 135/159/140
f 135/159/140 141/165/32 142/166/31 136/160/141
f 136/160/141 142/166/31 143/167/30 137/161/142
f 137/161/142 143/167/30 144/168/29 138/162/143
f 138/162/143 144/168/29 140/164/28 134/158/53
f 1/2/144 26/50/26 30/54/106 3/6/145
f 3/6/145 30/54/106 29/53/146 4/8/147
f 4/8/147 29/53/146 28/52/148 5/10/149
f 5/10/149 28/52/148 27/51/102 6/12/150
f 6/12/150 27/51/102 25/49/2 2/4/10
f 85/109/5 14/28/8 18/36/151 87/111/108
f 87/111/108 18/36/151 17/34/152 88/112/153
f 88/112/153 17/34/152 16/32/154 89/113/155
f 89/113/155 16/32/154 15/30/156 90/114/114
f 90/114/114 15/30/156 13/26/9 86/110/1
f 7/14/70 56/80/58 60/84/97 9/18/157
f 9/18/157 60/84/97 59/83/158 10/20/159
f 10/20/159 59/83/158 58/82/160 11/22/161
f 11/22/161 58/82/160 57/81/101 12/24/162
f 12/24/162 57/81/101 55/79/27 8/16/163
f 19/38/7 116/140/6 120/144/127 21/42/164
f 21/42/164 120/144/127 119/143/165 22/44/166
f 22/44/166 119/143/165 118/142/167 23/46/168
f 23/46/168 118/142/167 117/141/133 24/48/169
f 24/48/169 117/141/133 115/139/59 20/40/71
f 1/2/144 8/16/163 55/79/27 26/50/26
