# Blender 3.5.1
# www.blender.org
mtllib R3_Wall.mtl
o R3_Wall
v 3.468894 2.487037 -0.200000
v 6.018556 0.909157 -0.200000
v 6.059162 0.871598 -0.200000
v 6.059162 2.524596 -0.200000
v 6.018556 2.487037 -0.218538
v 3.468894 2.487037 -0.218538
v 6.018556 0.909157 -0.218538
v 3.468894 0.909157 -0.218538
v 3.428287 0.871598 -0.200000
v 3.428287 2.524596 -0.200000
v 3.428287 2.524596 -0.206368
v 3.440912 2.512918 -0.218538
v 3.431985 2.521175 -0.214973
v 3.440912 0.883276 -0.218538
v 3.428287 0.871598 -0.206368
v 3.431985 0.875019 -0.214973
v 6.046536 2.512918 -0.218538
v 6.059162 2.524596 -0.206368
v 6.055465 2.521175 -0.214974
v 6.059162 0.871598 -0.206368
v 6.046536 0.883276 -0.218538
v 6.055465 0.875019 -0.214974
v 6.525365 0.000000 -0.000000
v 6.018556 2.487037 -0.000000
v 6.525365 0.000000 -6.214954
v 6.525365 2.700000 -6.214954
v 0.000000 0.000000 -6.214954
v 0.000000 2.700000 -6.214954
v 0.000000 0.000000 0.000000
v 3.468894 2.487037 0.000000
v 6.018556 2.487037 -0.200000
v 6.425365 2.700000 -6.114954
v 0.100000 2.700000 -6.114954
v 6.018556 0.909157 -0.000000
v 6.525365 0.152808 -6.214954
v 0.000000 0.152808 -6.214954
v 3.468894 0.909157 0.000000
v 6.425365 0.152808 -6.114954
v 0.100000 0.152808 -6.114954
v 3.468894 0.909157 -0.200000
v 6.415436 0.000000 -0.209930
v 0.109930 0.000000 -0.209930
v 0.109930 0.000000 -6.105024
v 6.415435 0.000000 -6.105025
v 6.415436 0.148385 -0.209930
v 6.419866 0.152808 -0.205500
v 6.416734 0.151512 -0.208632
v 6.419866 0.152808 -6.109455
v 6.415435 0.148385 -6.105025
v 6.416733 0.151512 -6.106322
v 0.109930 0.148385 -6.105024
v 0.105497 0.152808 -6.109457
v 0.108631 0.151512 -6.106323
v 0.109930 0.148385 -0.209930
v 0.105499 0.152808 -0.205498
v 0.108632 0.151512 -0.208632
v 6.525365 0.152808 -0.000000
v 6.525365 2.700000 -0.000000
v 1.364911 2.487037 0.000000
v 6.425365 2.700000 -0.200001
v 6.425365 0.152808 -0.200001
v 1.364911 0.429485 -0.000000
v 0.285741 2.487037 0.000000
v 0.285741 2.487037 -0.200000
v 0.285741 0.429485 -0.200000
v 1.364911 0.429485 -0.200000
v 2.414641 0.000000 -0.209930
v 2.414641 0.148385 -0.209930
v 2.414552 0.151512 -0.208632
v 2.414335 0.152808 -0.205499
v 1.364911 2.487037 -0.200000
v 0.285741 0.429485 0.000000
v 2.413955 0.000000 -0.000000
v 2.413955 0.152808 -0.000000
v 0.000000 0.152808 0.000000
v 0.100000 2.700000 -0.200000
v 0.100000 0.152808 -0.200000
v 2.413955 0.152808 -0.200000
v 2.413955 2.700000 -0.200000
v 2.413955 2.700000 0.000000
v 0.000000 2.700000 0.000000
v 1.405517 0.391926 -0.200000
v 1.405517 2.524596 -0.200000
v 1.364911 2.487037 -0.218538
v 0.285741 2.487037 -0.218538
v 1.364911 0.429485 -0.218538
v 0.285741 0.429485 -0.218538
v 0.245134 0.391926 -0.200000
v 0.245134 2.524596 -0.200000
v 0.245134 2.524596 -0.206368
v 0.257760 2.512918 -0.218538
v 0.248832 2.521175 -0.214973
v 0.257760 0.403604 -0.218538
v 0.245134 0.391926 -0.206368
v 0.248832 0.395346 -0.214973
v 1.392892 2.512918 -0.218538
v 1.405517 2.524596 -0.206368
v 1.401820 2.521175 -0.214974
v 1.405517 0.391926 -0.206368
v 1.392892 0.403604 -0.218538
v 1.401820 0.395346 -0.214974
vn -0.0000 -1.0000 -0.0000
vn -1.0000 -0.0000 -0.0000
vn -0.0000 1.0000 -0.0000
vn 1.0000 -0.0000 -0.0000
vn 0.9844 -0.0000 -0.1762
vn -0.0000 -0.0000 -1.0000
vn -0.1414 0.1559 -0.9776
vn 0.1413 0.1559 -0.9776
vn -0.0000 -0.9868 -0.1621
vn -0.1414 -0.1558 -0.9776
vn 0.1413 -0.1559 -0.9776
vn -0.9844 -0.0000 -0.1762
vn -0.3708 -0.0000 -0.9287
vn -0.9188 -0.0000 -0.3948
vn 0.9188 -0.0000 -0.3947
vn 0.3708 -0.0000 -0.9287
vn -0.0000 -0.9293 -0.3694
vn -0.0000 -0.3963 -0.9181
vn -0.0000 0.3963 -0.9181
vn -0.0000 0.9293 -0.3694
vn -0.0000 0.9868 -0.1621
vn 0.0504 0.9975 -0.0504
vn 0.0504 0.9975 0.0504
vn -0.0000 -0.0000 1.0000
vn -0.0504 0.9975 0.0504
vn -0.0000 0.9242 0.3820
vn 0.9764 0.2158 -0.0000
vn -0.0504 0.9975 -0.0504
vn -0.0000 0.9808 -0.1948
vn -0.0000 0.2158 0.9764
vn -0.0000 0.3833 0.9236
vn -0.0000 0.1954 -0.9807
vn -0.0000 0.2158 -0.9764
vn -0.3822 0.9241 -0.0000
vn -0.9236 0.3833 -0.0000
vn -0.9765 0.2157 -0.0000
vn -0.9764 0.2157 -0.0000
vn -0.0000 0.3833 -0.9236
vn -0.0000 0.9241 -0.3821
vn 0.3820 0.9242 -0.0000
vn 0.9236 0.3834 -0.0000
vn -0.1413 0.1559 -0.9776
vn -0.1413 -0.1558 -0.9776
vn 0.1413 -0.1558 -0.9776
vn 0.9188 -0.0000 -0.3948
vt 0.986495 0.001600
vt 0.763505 0.936672
vt 0.879352 0.594193
vt 0.855543 0.788523
vt 0.760305 0.689758
vt 0.573029 0.973709
vt 0.763505 0.949017
vt 0.974590 0.594193
vt 0.192076 0.837906
vt 0.760305 0.001600
vt 0.736495 0.692958
vt 0.192076 0.887289
vt 0.965886 0.590993
vt 0.965886 0.199131
vt 0.965886 0.396662
vt 0.573029 0.976909
vt 0.977790 0.195931
vt 0.950781 0.939872
vt 0.763505 0.924326
vt 0.962686 0.791723
vt 0.977790 0.001600
vt 0.763505 0.927526
vt 0.950781 0.924326
vt 0.763505 0.911980
vt 0.763505 0.939872
vt 0.965886 0.594193
vt 0.974590 0.001600
vt 0.962686 0.986054
vt 0.965886 0.788523
vt 0.950781 0.927526
vt 0.950781 0.911980
vt 0.974590 0.195931
vt 0.965886 0.393462
vt 0.950781 0.890489
vt 0.763505 0.890489
vt 0.760305 0.976909
vt 0.763505 0.899635
vt 0.953981 0.590993
vt 0.942076 0.594193
vt 0.760305 0.986054
vt 0.950781 0.915180
vt 0.763505 0.902835
vt 0.763505 0.887289
vt 0.950781 0.837906
vt 0.763505 0.878143
vt 0.962686 0.590993
vt 0.950781 0.828761
vt 0.950781 0.594193
vt 0.950781 0.902835
vt 0.965886 0.195931
vt 0.950781 0.887289
vt 0.953981 0.001600
vt 0.974590 0.393462
vt 0.950781 0.899635
vt 0.953981 0.396662
vt 0.950781 0.850252
vt 0.950781 0.878143
vt 0.962686 0.396662
vt 0.950781 0.841106
vt 0.962686 0.001600
vt 0.763505 0.915180
vt 0.953981 0.791723
vt 0.953981 0.393462
vt 0.763505 0.837906
vt 0.974590 0.396662
vt 0.763505 0.862598
vt 0.942076 0.788523
vt 0.573029 0.986054
vt 0.763505 0.853452
vt 0.962686 0.393462
vt 0.763505 0.828761
vt 0.950781 0.788523
vt 0.974590 0.590993
vt 0.974590 0.199131
vt 0.950781 0.862598
vt 0.763505 0.850252
vt 0.965886 0.001600
vt 0.953981 0.986054
vt 0.953981 0.199131
vt 0.953981 0.195931
vt 0.950781 0.853452
vt 0.962686 0.199131
vt 0.763505 0.841106
vt 0.962686 0.195931
vt 0.891257 0.396662
vt 0.903162 0.393462
vt 0.001600 0.911980
vt 0.715886 0.887289
vt 0.855543 0.001600
vt 0.760305 0.952217
vt 0.382552 0.924326
vt 0.903162 0.001600
vt 0.001600 0.199131
vt 0.867448 0.199131
vt 0.382552 0.911980
vt 0.001600 0.001600
vt 0.760305 0.924326
vt 0.001600 0.936672
vt 0.192076 0.590993
vt 0.760305 0.911980
vt 0.879352 0.590993
vt 0.379352 0.001600
vt 0.379352 0.936672
vt 0.763505 0.825561
vt 0.858743 0.594193
vt 0.474590 0.692958
vt 0.855543 0.393462
vt 0.573029 0.952217
vt 0.986495 0.195931
vt 0.950781 0.949017
vt 0.379352 0.837906
vt 0.382552 0.689758
vt 0.736495 0.887289
vt 0.760305 0.973709
vt 0.001600 0.594193
vt 0.760305 0.396662
vt 0.858743 0.199131
vt 0.382552 0.902835
vt 0.382552 0.001600
vt 0.382552 0.396662
vt 0.760305 0.902835
vt 0.870648 0.590993
vt 0.665067 0.393462
vt 0.188876 0.911980
vt 0.715886 0.692958
vt 0.192076 0.865798
vt 0.188876 0.199131
vt 0.382552 0.915180
vt 0.894457 0.001600
vt 0.001600 0.195931
vt 0.379352 0.590993
vt 0.760305 0.915180
vt 0.001600 0.927526
vt 0.379352 0.195931
vt 0.858743 0.788523
vt 0.665067 0.001600
vt 0.474590 0.887289
vt 0.379352 0.865798
vt 0.001600 0.788523
vt 0.760305 0.590993
vt 0.891257 0.393462
vt 0.926971 0.001600
vt 0.382552 0.899635
vt 0.569829 0.001600
vt 0.382552 0.590993
vt 0.891257 0.001600
vt 0.974590 0.788523
vt 0.950781 0.936672
vt 0.879352 0.788523
vt 0.855543 0.594193
vt 0.760305 0.393462
vt 0.379352 0.887289
vt 0.382552 0.949017
vt 0.379352 0.986054
vt 0.915067 0.393462
vt 0.950781 0.874943
vt 0.915067 0.001600
vt 0.930171 0.001600
vt 0.930171 0.393462
vt 0.001600 0.986054
vt 0.382552 0.939872
vt 0.001600 0.952217
vt 0.379352 0.976909
vt 0.903162 0.788523
vt 0.379352 0.939872
vt 0.918267 0.393462
vt 0.926971 0.788523
vt 0.001600 0.915180
vt 0.918267 0.788523
vt 0.001600 0.961363
vt 0.001600 0.924326
vt 0.894457 0.788523
vt 0.882552 0.393462
vt 0.760305 0.927526
vt 0.918267 0.001600
vt 0.926971 0.396662
vt 0.915067 0.396662
vt 0.379352 0.952217
vt 0.938876 0.393462
vt 0.001600 0.976909
vt 0.760305 0.936672
vt 0.906362 0.396662
vt 0.918267 0.396662
vt 0.379352 0.961363
vt 0.906362 0.001600
vt 0.915067 0.788523
vt 0.938876 0.001600
vt 0.942076 0.393462
vt 0.382552 0.890489
vt 0.882552 0.001600
vt 0.382552 0.927526
vt 0.001600 0.973709
vt 0.382552 0.936672
vt 0.906362 0.788523
vt 0.001600 0.964563
vt 0.950781 0.393462
vt 0.906362 0.393462
vt 0.569829 0.986054
vt 0.942076 0.001600
vt 0.950781 0.865798
vt 0.760305 0.890489
vt 0.930171 0.594193
vt 0.379352 0.973709
vt 0.953981 0.788523
vt 0.569829 0.976909
vt 0.938876 0.594193
vt 0.379352 0.964563
vt 0.950781 0.001600
vt 0.188876 0.590993
vt 0.882552 0.396662
vt 0.894457 0.393462
vt 0.573029 0.393462
vt 0.188876 0.865798
vt 0.001600 0.590993
vt 0.867448 0.590993
vt 0.379352 0.862598
vt 0.001600 0.865798
vt 0.763505 0.001600
vt 0.855543 0.791723
vt 0.477790 0.788523
vt 0.188876 0.837906
vt 0.192076 0.890489
vt 0.379352 0.594193
vt 0.858743 0.590993
vt 0.379352 0.841106
vt 0.379352 0.791723
vt 0.382552 0.594193
vt 0.379352 0.788523
vt 0.379352 0.949017
vt 0.926971 0.393462
vt 0.192076 0.791723
vt 0.668267 0.001600
vt 0.477790 0.887289
vt 0.665067 0.788523
vt 0.379352 0.890489
vt 0.965886 0.887289
vt 0.763505 0.791723
vt 0.858743 0.001600
vt 0.760305 0.692958
vt 0.001600 0.837906
vt 0.763505 0.813215
vt 0.879352 0.001600
vt 0.950781 0.590993
vt 0.712686 0.692958
vt 0.998400 0.297896
vt 0.763505 0.986054
vt 0.879352 0.195931
vt 0.950781 0.396662
vt 0.477790 0.837906
vt 0.986495 0.791723
vt 0.998400 0.294696
vt 0.950781 0.986054
vt 0.665067 0.837906
vt 0.855543 0.590993
vt 0.379352 0.911980
vt 0.986495 0.887289
vt 0.763505 0.961363
vt 0.998400 0.199131
vt 0.760305 0.949017
vt 0.763505 0.874943
vt 0.760305 0.939872
vt 0.382552 0.986054
vt 0.903162 0.396662
vt 0.763505 0.865798
vt 0.382552 0.976909
vt 0.938876 0.788523
vt 0.379352 0.924326
vt 0.894457 0.396662
vt 0.001600 0.939872
vt 0.930171 0.788523
vt 0.379352 0.915180
vt 0.953981 0.594193
vt 0.855543 0.813215
vt 0.712686 0.887289
vt 0.855543 0.396662
vt 0.192076 0.911980
vt 0.998400 0.393462
vt 0.950781 0.961363
vt 0.858743 0.195931
vt 0.665067 0.887289
vt 0.760305 0.887289
vt 0.965886 0.791723
vt 0.891257 0.788523
vt 0.950781 0.825561
vt 0.882552 0.788523
vt 0.573029 0.001600
vt 0.382552 0.887289
vt 0.950781 0.816415
vt 0.477790 0.841106
vt 0.665067 0.692958
vt 0.379352 0.199131
vt 0.379352 0.927526
vt 0.763505 0.816415
vt 0.665067 0.841106
vt 0.739695 0.887289
vt 0.382552 0.393462
vt 0.870648 0.199131
vt 0.382552 0.952217
vt 0.930171 0.590993
vt 0.668267 0.692958
vt 0.760305 0.899635
vt 0.569829 0.393462
vt 0.962686 0.788523
vt 0.930171 0.396662
vt 0.477790 0.791723
vt 0.001600 0.949017
vt 0.763505 0.594193
vt 0.668267 0.393462
vt 0.962686 0.594193
vt 0.665067 0.791723
vt 0.763505 0.590993
vt 0.001600 0.841106
vt 0.763505 0.788523
vt 0.760305 0.594193
vt 0.569829 0.952217
vt 0.668267 0.887289
vt 0.763505 0.396662
vt 0.001600 0.862598
vt 0.382552 0.692958
vt 0.569829 0.973709
vt 0.763505 0.393462
vt 0.477790 0.692958
vt 0.188876 0.791723
vt 0.192076 0.199131
vt 0.879352 0.199131
vt 0.382552 0.973709
vt 0.739695 0.692958
vt 0.001600 0.791723
vt 0.977790 0.590993
vt 0.977790 0.890489
vt 0.977790 0.396662
vt 0.668267 0.989254
vt 0.989695 0.393462
vt 0.950781 0.952217
vt 0.858743 0.800869
vt 0.998400 0.001600
vt 0.989695 0.297896
vt 0.763505 0.976909
vt 0.950781 0.800869
vt 0.192076 0.998400
vt 0.763505 0.952217
vt 0.989695 0.199131
vt 0.974590 0.890489
vt 0.998400 0.195931
vt 0.989695 0.294696
vt 0.950781 0.976909
vt 0.379352 0.998400
vt 0.974590 0.986054
vt 0.977790 0.986054
vt 0.569829 0.989254
vt 0.382552 0.989254
vt 0.760305 0.989254
vt 0.382552 0.998400
vt 0.977790 0.788523
vt 0.989695 0.495427
vt 0.760305 0.998400
vt 0.950781 0.791723
vt 0.192076 0.989254
vt 0.001600 0.998400
vt 0.665067 0.998400
vt 0.001600 0.989254
vt 0.986495 0.788523
vt 0.665067 0.989254
vt 0.998400 0.495427
vt 0.379352 0.989254
vt 0.965886 0.986054
vt 0.188876 0.998400
vt 0.989695 0.396662
vt 0.986495 0.986054
vt 0.569829 0.998400
vt 0.977790 0.594193
vt 0.950781 0.813215
vt 0.188876 0.989254
vt 0.986495 0.594193
vt 0.950781 0.804069
vt 0.998400 0.396662
vt 0.858743 0.791723
vt 0.989695 0.001600
vt 0.977790 0.393462
vt 0.573029 0.998400
vt 0.986495 0.396662
vt 0.763505 0.973709
vt 0.989695 0.590993
vt 0.668267 0.998400
vt 0.763505 0.964563
vt 0.986495 0.393462
vt 0.573029 0.989254
vt 0.998400 0.590993
vt 0.986495 0.590993
vt 0.986495 0.890489
vt 0.950781 0.973709
vt 0.858743 0.813215
vt 0.965886 0.890489
vt 0.989695 0.195931
vt 0.977790 0.199131
vt 0.989695 0.492227
vt 0.950781 0.964563
vt 0.986495 0.199131
vt 0.858743 0.804069
vt 0.998400 0.492227
s 1
usemtl R3_Wall
f 31/109/1 1/1/1 6/21/1 5/17/1
f 2/7/2 31/110/2 5/18/2 7/25/2
f 40/147/3 2/8/3 7/26/3 8/29/3
f 1/2/4 40/148/4 8/30/4 6/22/4
f 20/73/5 18/65/5 4/15/4 3/13/4
f 5/19/6 6/23/6 12/41/7 17/61/8
f 15/53/9 20/74/9 3/14/1 9/33/1
f 6/24/6 8/31/6 14/49/10 12/42/7
f 8/32/6 7/27/6 21/77/11 14/50/10
f 11/37/12 15/54/12 9/34/2 10/35/2
f 7/28/6 5/20/6 17/62/8 21/78/11
f 12/43/7 14/51/10 16/57/13 13/45/13
f 13/46/14 16/58/14 15/55/12 11/38/12
f 18/66/5 20/75/5 22/81/15 19/69/15
f 19/70/16 22/82/16 21/79/11 17/63/8
f 20/76/9 15/56/9 16/59/17 22/83/17
f 22/84/18 16/60/18 14/52/10 21/80/11
f 17/64/8 12/44/7 13/47/19 19/71/19
f 19/72/20 13/48/20 11/39/21 18/67/21
f 18/68/21 11/40/21 10/36/3 4/16/3
f 57/209/4 35/127/4 26/93/4 58/214/4
f 39/143/3 77/301/3 55/201/22 52/189/23
f 36/131/2 75/291/2 81/324/2 28/99/2
f 61/228/2 60/223/2 32/115/2 38/139/2
f 39/144/4 33/119/4 76/296/4 77/302/4
f 38/140/24 32/116/24 33/120/24 39/145/24
f 58/215/3 26/94/3 32/117/3 60/224/3
f 26/95/3 28/100/3 33/121/3 32/118/3
f 28/101/3 81/325/3 76/297/3 33/122/3
f 80/318/3 58/216/3 60/225/3 79/312/3
f 38/141/3 39/146/3 52/190/23 48/173/25
f 27/97/6 36/132/6 35/128/6 25/91/6
f 73/283/24 23/85/24 57/210/24 74/285/24
f 27/98/2 29/103/2 75/292/2 36/133/2
f 23/86/4 25/92/4 35/129/4 57/211/4
f 64/241/1 71/273/1 59/219/1 63/237/1
f 40/149/4 1/3/4 30/105/4 37/135/4
f 53/193/26 50/181/26 48/174/25 52/191/23
f 43/157/4 51/185/27 54/197/27 42/155/4
f 78/306/3 61/229/3 46/165/28 70/269/29
f 51/186/30 49/177/30 50/182/31 53/194/31
f 35/130/6 36/134/6 28/102/6 26/96/6
f 61/230/3 38/142/3 48/175/25 46/166/28
f 67/259/6 68/261/32 45/161/33 41/153/6
f 46/167/28 48/176/25 50/183/34 47/169/34
f 47/170/35 50/184/35 49/178/36 45/162/37
f 51/187/30 43/158/24 44/159/24 49/179/30
f 68/262/32 54/198/33 56/205/38 69/265/38
f 69/266/39 56/206/39 55/202/22 70/270/29
f 52/192/23 55/203/22 56/207/40 53/195/40
f 53/196/41 56/208/41 54/199/27 51/188/27
f 41/154/2 45/163/37 49/180/36 44/160/2
f 34/123/24 37/136/24 74/286/24 57/212/24
f 24/87/24 34/124/24 57/213/24 58/217/24
f 37/137/24 30/106/24 80/319/24 74/287/24
f 2/9/6 31/111/6 60/226/6 61/231/6
f 1/4/6 40/150/6 78/307/6 79/313/6
f 29/104/24 73/284/24 74/288/24 75/293/24
f 40/151/6 2/10/6 61/232/6 78/308/6
f 31/112/6 1/5/6 79/314/6 60/227/6
f 31/113/2 2/11/2 34/125/2 24/88/2
f 2/12/3 40/152/3 37/138/3 34/126/3
f 65/247/4 64/242/4 63/238/4 72/279/4
f 47/171/39 69/267/39 70/271/29 46/168/28
f 45/164/33 68/263/32 69/268/38 47/172/38
f 42/156/6 54/200/33 68/264/32 67/260/6
f 77/303/3 78/309/3 70/272/29 55/204/22
f 81/326/3 80/320/3 79/315/3 76/298/3
f 24/89/24 58/218/24 80/321/24 30/107/24
f 62/233/24 72/280/24 75/294/24 74/289/24
f 64/243/6 65/248/6 77/304/6 76/299/6
f 65/249/6 66/253/6 78/310/6 77/305/6
f 71/274/6 64/244/6 76/300/6 79/316/6
f 59/220/24 62/234/24 74/290/24 80/322/24
f 72/281/24 63/239/24 81/327/24 75/295/24
f 63/240/24 59/221/24 80/323/24 81/328/24
f 66/254/6 71/275/6 79/317/6 78/311/6
f 71/276/2 66/255/2 62/235/2 59/222/2
f 66/256/3 65/250/3 72/282/3 62/236/3
s 0
f 1/6/1 31/114/1 24/90/1 30/108/1
s 1
f 71/277/1 64/245/1 85/337/1 84/333/1
f 66/257/2 71/278/2 84/334/2 86/341/2
f 65/251/3 66/258/3 86/342/3 87/345/3
f 64/246/4 65/252/4 87/346/4 85/338/4
f 99/389/5 97/381/5 83/331/4 82/329/4
f 84/335/6 85/339/6 91/357/42 96/377/8
f 94/369/9 99/390/9 82/330/1 88/349/1
f 85/340/6 87/347/6 93/365/43 91/358/42
f 87/348/6 86/343/6 100/393/44 93/366/43
f 90/353/12 94/370/12 88/350/2 89/351/2
f 86/344/6 84/336/6 96/378/8 100/394/44
f 91/359/42 93/367/43 95/373/13 92/361/13
f 92/362/14 95/374/14 94/371/12 90/354/12
f 97/382/5 99/391/5 101/397/45 98/385/45
f 98/386/16 101/398/16 100/395/44 96/379/8
f 99/392/9 94/372/9 95/375/17 101/399/17
f 101/400/18 95/376/18 93/368/43 100/396/44
f 96/380/8 91/360/42 92/363/19 98/387/19
f 98/388/20 92/364/20 90/355/21 97/383/21
f 97/384/21 90/356/21 89/352/3 83/332/3
